<svg xmlns="http://www.w3.org/2000/svg" viewBox="0 0 100 100">
  <rect x="0" y="0" width="100" height="100" fill="#ffffff"/>
  <polygon points="0,0 56,0 56,55 45,40 40,40 40,100 0,100" fill="#9370db"/>
  <polygon points="0,0 56,0 56,55 45,40 40,40 40,100 0,100" fill="#2e2e2e" transform="rotate(180,50,50)"/>

  <rect x="56" y="1.5" width="2" height="1.5" fill="#9370db"/>
  <rect x="56" y="4.5" width="2" height="1.5" fill="#9370db"/>
  <rect x="56" y="6" width="2" height="1.5" fill="#9370db"/>
  <rect x="56" y="9" width="2" height="1.5" fill="#9370db"/>
  <rect x="56" y="12" width="2" height="1.5" fill="#9370db"/>
  <rect x="56" y="15" width="2" height="1.5" fill="#9370db"/>
  <rect x="56" y="18" width="2" height="1.5" fill="#9370db"/>
  <rect x="56" y="21" width="2" height="1.5" fill="#9370db"/>
  <rect x="56" y="24" width="2" height="1.5" fill="#9370db"/>
  <rect x="56" y="27" width="2" height="1.5" fill="#9370db"/>
  <rect x="56" y="30" width="2" height="1.5" fill="#9370db"/>
  <rect x="56" y="33" width="2" height="1.5" fill="#9370db"/>
  <rect x="56" y="36" width="2" height="1.5" fill="#9370db"/>
  <rect x="56" y="39" width="2" height="1.5" fill="#9370db"/>

  <rect x="58" y="0" width="2" height="1.5" fill="#2e2e2e"/>
  <rect x="58" y="3" width="2" height="1.5" fill="#2e2e2e"/>
  <rect x="58" y="6" width="2" height="1.5" fill="#2e2e2e"/>
  <rect x="58" y="7.5" width="2" height="1.5" fill="#2e2e2e"/>
  <rect x="58" y="10.5" width="2" height="1.5" fill="#2e2e2e"/>
  <rect x="58" y="13.5" width="2" height="1.5" fill="#2e2e2e"/>
  <rect x="58" y="16.5" width="2" height="1.5" fill="#2e2e2e"/>
  <rect x="58" y="19.5" width="2" height="1.5" fill="#2e2e2e"/>
  <rect x="58" y="22.5" width="2" height="1.5" fill="#2e2e2e"/>
  <rect x="58" y="25.5" width="2" height="1.5" fill="#2e2e2e"/>
  <rect x="58" y="28.5" width="2" height="1.5" fill="#2e2e2e"/>
  <rect x="58" y="31.5" width="2" height="1.5" fill="#2e2e2e"/>
  <rect x="58" y="34.5" width="2" height="1.5" fill="#2e2e2e"/>
  <rect x="58" y="37.5" width="2" height="1.5" fill="#2e2e2e"/>

  <polygon points="70,60 77,40 83,40 90,60 85,60 80,45 75,60" fill="#ffffff"/>

  <rect x="40" y="61" width="2" height="1.5" fill="#9370db"/>
  <rect x="40" y="64" width="2" height="1.5" fill="#9370db"/>
  <rect x="40" y="67" width="2" height="1.5" fill="#9370db"/>
  <rect x="40" y="70" width="2" height="1.5" fill="#9370db"/>
  <rect x="40" y="73" width="2" height="1.5" fill="#9370db"/>
  <rect x="40" y="76" width="2" height="1.5" fill="#9370db"/>
  <rect x="40" y="79" width="2" height="1.5" fill="#9370db"/>
  <rect x="40" y="82" width="2" height="1.5" fill="#9370db"/>
  <rect x="40" y="85" width="2" height="1.5" fill="#9370db"/>
  <rect x="40" y="88" width="2" height="1.5" fill="#9370db"/>
  <rect x="40" y="91" width="2" height="1.5" fill="#9370db"/>
  <rect x="40" y="94" width="2" height="1.5" fill="#9370db"/>
  <rect x="40" y="97" width="2" height="1.5" fill="#9370db"/>

  <rect x="42" y="62.5" width="2" height="1.5" fill="#2e2e2e"/>
  <rect x="42" y="65.5" width="2" height="1.5" fill="#2e2e2e"/>
  <rect x="42" y="68.5" width="2" height="1.5" fill="#2e2e2e"/>
  <rect x="42" y="71.5" width="2" height="1.5" fill="#2e2e2e"/>
  <rect x="42" y="74.5" width="2" height="1.5" fill="#2e2e2e"/>
  <rect x="42" y="77.5" width="2" height="1.5" fill="#2e2e2e"/>
  <rect x="42" y="80.5" width="2" height="1.5" fill="#2e2e2e"/>
  <rect x="42" y="83.5" width="2" height="1.5" fill="#2e2e2e"/>
  <rect x="42" y="86.5" width="2" height="1.5" fill="#2e2e2e"/>
  <rect x="42" y="89.5" width="2" height="1.5" fill="#2e2e2e"/>
  <rect x="42" y="92.5" width="2" height="1.5" fill="#2e2e2e"/>
  <rect x="42" y="95.5" width="2" height="1.5" fill="#2e2e2e"/>
  <rect x="42" y="98.5" width="2" height="1.5" fill="#2e2e2e"/>


  <!-- <line x1="0" y1="39" x2="100" y2="39" stroke="red" />
  <line x1="0" y1="61" x2="100" y2="61" stroke="red" /> -->

  <g transform="scale(0.0125,-0.0125)" fill="#FFF" stroke="none">
    <path d="M1016 -3176 c-3 -7 -4 -375 -3 -818 l3 -805 173 -3 172 -2 0 253 0 254
    213 6 c246 8 286 14 387 64 124 60 208 152 257 280 35 93 44 269 18 375 -48
    202 -201 349 -410 393 -95 20 -803 22 -810 3z m692 -283 c125 -37 188 -128
    188 -271 0 -70 -4 -88 -30 -139 -57 -111 -142 -145 -367 -145 l-138 0 0 285 0
    285 148 0 c102 0 164 -5 199 -15z"/>
  </g>


  <g transform="scale(0.015,-0.015) rotate(15,50,50)"
  fill="#FFF" stroke="#000" stroke-width="15">
    <path d="M3600 -1300 c-16 -10 -36 -27 -44 -36 -18 -21 -74 -503 -66 -554 10
    -54 51 -72 168 -72 114 0 162 15 177 56 8 20 4 90 -15 268 -14 133 -28 253
    -31 267 -14 71 -124 112 -189 71z m114 -126 c7 -8 11 -34 9 -58 l-3 -43 -55 0
    -55 0 -3 49 c-2 32 1 52 10 57 21 14 85 10 97 -5z"/>
  </g>

</svg>
