<svg xmlns="http://www.w3.org/2000/svg" viewBox="0 0 100 100">
  <rect x="0" y="0" width="100" height="100" fill="#ffffff"/>
  <polygon points="0,0 56,0 56,55 45,40 40,40 40,100 0,100" fill="#9370db"/>
  <polygon points="0,0 56,0 56,55 45,40 40,40 40,100 0,100" fill="#2e2e2e" transform="rotate(180,50,50)"/>

  <rect x="56" y="1.5" width="2" height="1.5" fill="#9370db"/>
  <rect x="56" y="4.5" width="2" height="1.5" fill="#9370db"/>
  <rect x="56" y="6" width="2" height="1.5" fill="#9370db"/>
  <rect x="56" y="9" width="2" height="1.5" fill="#9370db"/>
  <rect x="56" y="12" width="2" height="1.5" fill="#9370db"/>
  <rect x="56" y="15" width="2" height="1.5" fill="#9370db"/>
  <rect x="56" y="18" width="2" height="1.5" fill="#9370db"/>
  <rect x="56" y="21" width="2" height="1.5" fill="#9370db"/>
  <rect x="56" y="24" width="2" height="1.5" fill="#9370db"/>
  <rect x="56" y="27" width="2" height="1.5" fill="#9370db"/>
  <rect x="56" y="30" width="2" height="1.5" fill="#9370db"/>
  <rect x="56" y="33" width="2" height="1.5" fill="#9370db"/>
  <rect x="56" y="36" width="2" height="1.5" fill="#9370db"/>
  <rect x="56" y="39" width="2" height="1.5" fill="#9370db"/>

  <rect x="58" y="0" width="2" height="1.5" fill="#2e2e2e"/>
  <rect x="58" y="3" width="2" height="1.5" fill="#2e2e2e"/>
  <rect x="58" y="6" width="2" height="1.5" fill="#2e2e2e"/>
  <rect x="58" y="7.5" width="2" height="1.5" fill="#2e2e2e"/>
  <rect x="58" y="10.5" width="2" height="1.5" fill="#2e2e2e"/>
  <rect x="58" y="13.5" width="2" height="1.5" fill="#2e2e2e"/>
  <rect x="58" y="16.5" width="2" height="1.5" fill="#2e2e2e"/>
  <rect x="58" y="19.5" width="2" height="1.5" fill="#2e2e2e"/>
  <rect x="58" y="22.5" width="2" height="1.5" fill="#2e2e2e"/>
  <rect x="58" y="25.5" width="2" height="1.5" fill="#2e2e2e"/>
  <rect x="58" y="28.5" width="2" height="1.5" fill="#2e2e2e"/>
  <rect x="58" y="31.5" width="2" height="1.5" fill="#2e2e2e"/>
  <rect x="58" y="34.5" width="2" height="1.5" fill="#2e2e2e"/>
  <rect x="58" y="37.5" width="2" height="1.5" fill="#2e2e2e"/>

  <polygon points="70,60 77,40 83,40 90,60 85,60 80,45 75,60" fill="#ffffff"/>

  <rect x="40" y="61" width="2" height="1.5" fill="#9370db"/>
  <rect x="40" y="64" width="2" height="1.5" fill="#9370db"/>
  <rect x="40" y="67" width="2" height="1.5" fill="#9370db"/>
  <rect x="40" y="70" width="2" height="1.5" fill="#9370db"/>
  <rect x="40" y="73" width="2" height="1.5" fill="#9370db"/>
  <rect x="40" y="76" width="2" height="1.5" fill="#9370db"/>
  <rect x="40" y="79" width="2" height="1.5" fill="#9370db"/>
  <rect x="40" y="82" width="2" height="1.5" fill="#9370db"/>
  <rect x="40" y="85" width="2" height="1.5" fill="#9370db"/>
  <rect x="40" y="88" width="2" height="1.5" fill="#9370db"/>
  <rect x="40" y="91" width="2" height="1.5" fill="#9370db"/>
  <rect x="40" y="94" width="2" height="1.5" fill="#9370db"/>
  <rect x="40" y="97" width="2" height="1.5" fill="#9370db"/>

  <rect x="42" y="62.5" width="2" height="1.5" fill="#2e2e2e"/>
  <rect x="42" y="65.5" width="2" height="1.5" fill="#2e2e2e"/>
  <rect x="42" y="68.5" width="2" height="1.5" fill="#2e2e2e"/>
  <rect x="42" y="71.5" width="2" height="1.5" fill="#2e2e2e"/>
  <rect x="42" y="74.5" width="2" height="1.5" fill="#2e2e2e"/>
  <rect x="42" y="77.5" width="2" height="1.5" fill="#2e2e2e"/>
  <rect x="42" y="80.5" width="2" height="1.5" fill="#2e2e2e"/>
  <rect x="42" y="83.5" width="2" height="1.5" fill="#2e2e2e"/>
  <rect x="42" y="86.5" width="2" height="1.5" fill="#2e2e2e"/>
  <rect x="42" y="89.5" width="2" height="1.5" fill="#2e2e2e"/>
  <rect x="42" y="92.5" width="2" height="1.5" fill="#2e2e2e"/>
  <rect x="42" y="95.5" width="2" height="1.5" fill="#2e2e2e"/>
  <rect x="42" y="98.5" width="2" height="1.5" fill="#2e2e2e"/>


  <!-- <line x1="0" y1="39" x2="100" y2="39" stroke="red" />
  <line x1="0" y1="61" x2="100" y2="61" stroke="red" /> -->

  <path fill="#FFF" d="M12.7 39.55 v20.23 h4.3 v-6.337 l2.662 -.08 c3.08 -.1 3.575
  -.175 4.838 -.8 1.55 -.75 2.6 -1.9 3.212 -3.5 .438 -1.163 .55 -3.363 .225 -4.69
  -.6 -2.525 -2.512 -4.362 -5.1 -4.9z
  m8.65 3.538 c1.563 .462 2.35 1.6 2.35 3.387 0 .875 0 1.1 -.375 1.738 -.712 1.387
  -1.775 1.812 -4.587 1.812 h-1.85 v-7.15 h1.85 c1.275 0 2 .06 2.49 .188z"/>

  <g transform="scale(0.016,0.016) rotate(-20,0,0)" fill="#FFF" stroke="#2e2e2e" stroke-width="15">
    <path d="M3230 1500 c-16 10 -36 27 -44 36 -18 21 -74 503 -66 554 10
    54 51 72 168 72 114 0 162 -15 177 -56 8 -20 4 -90 -15 -268 -14 -133 -28 -253
    -31 -267 -14 -71 -124 -112 -189-71z m114 126 c7 8 11 34 9 58 l-3 43
    h-110 l-3 -49 c-2 -32 1 -52 10 -57 21 -14 85 -10 97 5z"/>
  </g>

</svg>
